<?xml version="1.0" encoding="UTF-8"?>
<!DOCTYPE svg PUBLIC "-//W3C//DTD SVG 1.1//EN" "http://www.w3.org/Graphics/SVG/1.1/DTD/svg11.dtd">
<!-- Creator: CorelDRAW 2021 (64-Bit) -->
<svg xmlns="http://www.w3.org/2000/svg" xml:space="preserve" width="118.536mm" height="128.704mm" version="1.1" style="shape-rendering:geometricPrecision; text-rendering:geometricPrecision; image-rendering:optimizeQuality; fill-rule:evenodd; clip-rule:evenodd"
viewBox="0 0 11947.54 12972.45"
 xmlns:xlink="http://www.w3.org/1999/xlink"
 xmlns:xodm="http://www.corel.com/coreldraw/odm/2003">
 <defs>
  <style type="text/css">
   <![CDATA[
    .fil3 {fill:#126603}
    .fil0 {fill:#8DC63E}
    .fil2 {fill:#F5C400}
    .fil1 {fill:#FC7217}
   ]]>
  </style>
 </defs>
 <g id="Layer_x0020_1">
  <metadata id="CorelCorpID_0Corel-Layer"/>
  <path class="fil0" d="M4824 4931.68c-582.66,-1080.74 -1330.68,-1938.52 -2385.75,-2436.93 1270.3,-39.34 1947.45,563.99 2385.75,2436.93zm-577.41 1434.88c73.49,62.96 65.62,107.56 -26.25,133.78 -1540.64,317.41 -2498.61,-813.19 -2627.21,-2263.8 839.87,689.9 2540.6,285.93 2813.56,1636.85 309.7,272.82 619.4,598.08 852.99,920.74 102.36,-1070.26 291.33,-2064.44 582.66,-2777.94 110.23,-317.41 296.57,-611.21 543.28,-855.16 498.67,-487.91 1278.18,-744.98 1960.57,-603.34 -999.96,613.83 -267.71,2350.37 -2362.13,2434.31 173.22,-692.52 582.66,-1406.02 1254.56,-1791.62 -679.78,201.98 -1194.19,870.89 -1406.78,1555.53 -202.09,1083.37 -293.95,2326.76 -283.46,3554.4 309.71,-495.78 698.14,-931.22 1152.2,-1287.97 317.58,-1500.46 2217.77,-1049.27 3160,-1823.11 -144.36,1628.99 -1220.44,2901.23 -2952.66,2544.48 -102.36,-31.49 -112.86,-81.32 -28.87,-149.53 443.55,-464.3 1246.68,-954.83 1803.09,-1141.07 -540.67,60.32 -1078.7,283.3 -1488.14,553.48 -682.4,519.39 -1309.67,1277.49 -1629.87,1935.91 34.12,994.18 131.23,1956.88 283.45,2791.05l-464.54 62.96c-204.72,-1114.85 -278.21,-2859.26 -160.11,-4503.98 -257.2,-485.29 -784.75,-1059.77 -1251.93,-1440.13 -364.82,-238.71 -842.5,-438.07 -1322.79,-493.15 488.18,157.39 1204.69,595.45 1598.38,1007.29z"/>
  <path class="fil1" d="M9432.78 10261.96c2359.51,-2358.23 2359.51,-6185.43 0,-8543.67 -976.35,-978.45 -2207.28,-1550.29 -3480.21,-1718.17 1574.76,-10.49 3094.4,679.4 4296.46,1880.81 4333.19,4330.85 -346.45,11594.41 -5942.08,10091.34 1816.21,257.07 3729.54,-312.16 5125.83,-1710.31z"/>
  <path class="fil2" d="M1671.86 1109.72c1653.49,-1067.63 3795.16,-1306.33 5726.86,-445.94 2070.8,923.35 3364.72,2869.75 3551.07,4976.16 -1018.34,-4068.54 -5257.06,-6272 -9277.93,-4530.22z"/>
  <path class="fil3" d="M10640.09 10146.54c-1188.93,1904.42 -3341.1,2985.17 -5579.88,2806.8 -2238.78,-178.37 -4188.85,-1592.26 -5060.21,-3659.32 1097.08,1807.37 2994.65,2977.3 5102.2,3147.8 2107.55,167.89 4167.85,-687.27 5537.89,-2295.27z"/>
 </g>
</svg>
