<?xml version="1.0" encoding="UTF-8"?>
<!DOCTYPE svg PUBLIC "-//W3C//DTD SVG 1.1//EN" "http://www.w3.org/Graphics/SVG/1.1/DTD/svg11.dtd">
<!-- Creator: CorelDRAW 2021 (64-Bit) -->
<svg xmlns="http://www.w3.org/2000/svg" xml:space="preserve" width="12.2778mm" height="14.9158mm" version="1.1" style="shape-rendering:geometricPrecision; text-rendering:geometricPrecision; image-rendering:optimizeQuality; fill-rule:evenodd; clip-rule:evenodd"
viewBox="0 0 194.26 236"
 xmlns:xlink="http://www.w3.org/1999/xlink"
 xmlns:xodm="http://www.corel.com/coreldraw/odm/2003">
 <defs>
  <style type="text/css">
   <![CDATA[
    .fil0 {fill:#38A92C}
   ]]>
  </style>
 </defs>
 <g id="Layer_x0020_1">
  <metadata id="CorelCorpID_0Corel-Layer"/>
  <path class="fil0" d="M104.7 213.68c0.24,-70.2 -7.52,-69.11 17.36,-86.92 11.26,-8.06 48.87,-37.09 60.27,-40.76l-0.41 75.15c-19.64,10.52 -59.06,47.52 -77.21,52.52zm-92.62 -127.67c8.52,2.99 69.54,45.79 76.66,53.34 5.72,19.67 1.43,51.47 1.47,74.25 -18.37,-4.61 -56.97,-42.22 -78.42,-53.36l0.29 -74.23zm6.64 -14.64c3.91,-7.55 71.47,-54.23 78.78,-57.19 9.34,4.14 73.76,50.34 77.87,57.9l-77.87 54.44c-7.79,-3.11 -73.15,-49.32 -78.78,-55.16zm-18.19 -4.85l-0.52 99.76c10.01,8.49 88.45,66.46 97.5,69.72l96.76 -68.85 -0.06 -100.28c-8.66,-6.76 -90.43,-66.68 -96.78,-66.87 -7.69,-0.23 -84.67,57.82 -96.9,66.51z"/>
 </g>
</svg>
