<?xml version="1.0" encoding="UTF-8"?>
<!DOCTYPE svg PUBLIC "-//W3C//DTD SVG 1.1//EN" "http://www.w3.org/Graphics/SVG/1.1/DTD/svg11.dtd">
<!-- Creator: CorelDRAW 2021 (64-Bit) -->
<svg xmlns="http://www.w3.org/2000/svg" xml:space="preserve" width="66.8585mm" height="14.9158mm" version="1.1" style="shape-rendering:geometricPrecision; text-rendering:geometricPrecision; image-rendering:optimizeQuality; fill-rule:evenodd; clip-rule:evenodd"
viewBox="0 0 5760.46 1285.13"
 xmlns:xlink="http://www.w3.org/1999/xlink"
 xmlns:xodm="http://www.corel.com/coreldraw/odm/2003">
 <defs>
  <style type="text/css">
   <![CDATA[
    .fil2 {fill:#38A92C}
    .fil0 {fill:#9E9E9E}
    .fil1 {fill:#A2A2A2}
   ]]>
  </style>
 </defs>
 <g id="Layer_x0020_1">
  <metadata id="CorelCorpID_0Corel-Layer"/>
  <g id="_2066947399072">
   <g>
    <path class="fil0" d="M1332.96 409.38c44.24,93.09 -3.95,-127.7 126.58,285.38l88.3 280.16c14.55,26.37 4.79,17.71 30.54,30.9 39.35,-23.04 33.61,-46.25 59.91,-122.89 16.25,-47.32 29.64,-85.37 45.91,-133.41 28.79,-85 63.83,-185.28 89.73,-267.45 33.83,30.47 37.88,74.01 57.37,129.8l93.17 268.32c14.75,43.97 19.92,110.21 67.15,125.63 25.02,-19.47 6.78,1.54 21.94,-26.92l139.1 -441.16c5.53,-17.9 14.65,-58.25 24.75,-77.2 33.11,-62.08 34.76,1.84 53.57,-51.16 -31.98,-19.89 -129.14,-16.94 -159.13,0 20.64,47.16 15.38,6.28 61.64,33.51 -14.85,73.99 -46.98,161.88 -70.34,238.39l-63.26 204.58c-12.57,23.85 -9.16,17.41 -23.66,31.62 -15.56,-68.08 -153.16,-482.03 -185.66,-516.49 -46.03,10.66 -47.49,59.25 -65.33,110.53 -28.42,81.67 -114.95,366.9 -146.88,394.82 -27.24,-42.33 -135.39,-404.3 -144.93,-463.47 45.21,-23.62 38.83,3.57 56.55,-33.51 -33.83,-16.85 -123.77,-17.47 -157.04,0z"/>
    <path class="fil1" d="M4969.2 856.16c-33.4,-198.58 95.21,-297.21 216.93,-234.13 45.72,23.68 52.21,43.62 52.03,110.51 -0.32,121.67 16.65,194.06 -85.74,234.52 -103.19,40.8 -169.54,-29.47 -183.23,-110.9zm267.66 -432.72l0.69 196.8c-58.49,-20.72 -115.47,-87.99 -221.52,-23.83 -205.45,124.25 -46.01,604.47 215.91,341.17l15.39 68.03c10.44,-0.05 39.65,0.73 49.95,-1.12 78.4,-14.24 -53.82,18.21 20.08,-5.6l17.3 -8.7c-33.71,-40.75 -15.39,3.3 -55.61,-33.51l-0.1 -572.78 -99.85 -1.9c13.52,34.33 -1.24,17.88 57.76,41.45z"/>
    <path class="fil0" d="M2352.35 956.67c-2.68,1.92 -7.43,0.18 -8.94,4.22 -2.65,7.03 -33.89,6.36 -50.49,29.29 28.8,23.44 114.17,15.26 162,14.78 -17.81,-46.71 22.92,-22.37 -56.24,-37.11 -7.11,-55.87 -8.07,-188.54 -4.25,-246.41 4.14,-62.5 66.64,-116.31 144.63,-114.48 155.96,3.64 104.37,260.52 108.61,396.93l100.12 2.71c-21.57,-56.6 34.52,-21.32 -56.98,-38.75 -14.63,-144.05 55.27,-426.31 -174.11,-392.45 -61.53,9.09 -80.07,44.41 -119.39,64.89l-3.21 -254.09 -97.68 -4.12c23.56,59.23 57.24,0.7 57.3,104.37l-1.37 470.22z"/>
    <path class="fil0" d="M4414.8 912.2c-57.92,-3.78 -58.79,34.97 -126.15,52.26 -157.92,40.54 -300.63,-42.98 -319.92,-219.55 -39,-357.31 345.02,-342.65 391.67,-278.65 22.58,51.19 -12.2,71.73 32.61,106.08 26.08,-36.19 18.21,-95.72 11.65,-140.21 -133.12,-32.81 -224.3,-70.74 -351.12,6.26 -84.55,51.33 -145.5,161.44 -130.38,306.77 20.76,199.6 185.14,300.19 362.01,257.97 53.61,-12.79 117.22,-40.49 129.63,-90.93z"/>
    <path class="fil0" d="M4518.4 833.81c-34.65,-288.8 275.61,-299.28 296.53,-78.08 26.99,285.27 -271.67,285.25 -296.53,78.08zm85.63 -250.65c-220.28,67.63 -161.17,500.61 124.56,418.62 216.96,-62.25 163.72,-507.12 -124.56,-418.62z"/>
    <path class="fil0" d="M5447.06 749.45c24.8,-194.95 261.56,-200.59 275.42,-2.14l-67.35 1.89 -208.07 0.25zm298.95 196.05c-28.63,-13.49 -302.8,145.82 -301.88,-166.84l314.58 -4.39c28.18,-232.34 -292.45,-283.05 -349.93,-54.75 -76.45,303.61 277.84,355.3 337.23,225.98z"/>
    <path class="fil0" d="M3086.08 801.93c7.58,82.67 15.23,113.14 -47.48,151.84 -155.96,96.2 -252.33,-69.8 -124.64,-124.06 53.57,-22.77 112.94,-27.17 172.12,-27.78zm-242.14 -149.43c35.37,3.2 270.17,-155.36 241.72,114.3 -96.75,27.67 -285.13,9.99 -265.96,154.94 7.68,57.98 54.46,91 121.23,89.44 69.9,-1.64 107.06,-40.72 145.28,-62.6l14.25 57.23 82.78 0.06c-24.23,-61.45 27.38,23.55 -13.93,-17.45l-14.42 -13.56c-22.24,-21.16 -13.34,11.67 -24.69,-30.78 -8.94,-33.48 15.28,-224.55 -15.84,-295.48 -50.02,-113.95 -248.28,-89.39 -270.41,3.91z"/>
    <path class="fil0" d="M3637.66 964.83c-16.99,-19.62 0.57,9.41 -10.52,-23.68 -20.34,-60.66 4.11,-46.78 -38.31,-56.15 -15.4,25.87 -9.17,69.12 -6.94,101.74 115.5,42.48 258.12,31.04 272.02,-87.48 16.21,-138.28 -161.79,-113.91 -230.1,-187.18 -7.81,-106.92 61.97,-113.24 157.43,-101.64 20.96,52.54 -8.55,70.75 42.14,85.48 16.94,-26.74 12.12,-67 5.47,-101.56 -244.13,-81.39 -326.5,131.09 -168.48,190.02 67.07,24.99 162.81,28.72 153.75,115.5 -6.96,66.73 -110.38,112.9 -176.47,64.95z"/>
    <path class="fil0" d="M3307.91 588.1c-41.24,9.1 -36.04,-2.85 -69.93,22.33l28.14 11.37c2.65,0.85 6.32,1.79 9.12,2.65 17.16,5.26 4.39,-4.88 30.1,8.31 5.47,91.46 -8.19,217.33 3.16,301.13 14.04,103.7 140.36,93.76 178.21,33.95 -33.26,-23.72 -9.79,-10.92 -42.89,-2.21 -97.25,25.67 -96.42,-8.81 -95.9,-142.96 0.24,-62.34 -3.35,-133.18 2.21,-194.25 32.06,-5.62 41.32,-2.74 71.95,-3.5 49.13,-1.21 50.57,10.28 59.96,-25.67l-134.2 -10.55c-0.05,-29.12 0.65,-53.78 0.86,-79.09 0.06,-7.93 0.05,-38.06 -1.19,-44.29 -8.04,-40.46 2.22,-13.36 -15.59,-33.61 -32.71,25.68 -21.1,112.75 -24.02,156.38z"/>
   </g>
   <path class="fil2" d="M570.14 1163.59c1.28,-382.3 -40.96,-376.32 94.53,-473.31 61.31,-43.88 266.1,-201.98 328.19,-221.94l-2.25 409.22c-106.97,57.31 -321.61,258.79 -420.46,286.02zm-504.37 -695.24c46.37,16.29 378.65,249.35 417.45,290.45 31.15,107.1 7.8,280.28 8.01,404.31 -100.01,-25.12 -310.22,-229.9 -427.03,-290.56l1.57 -404.2zm36.14 -79.72c21.29,-41.12 389.21,-295.28 429,-311.4 50.86,22.57 401.67,274.11 424.05,315.29l-424.05 296.47c-42.4,-16.91 -398.33,-268.58 -429,-300.36zm-99.07 -26.42l-2.84 543.27c54.49,46.25 481.65,361.93 530.91,379.67l526.93 -374.89 -0.33 -546.08c-47.14,-36.82 -492.46,-363.12 -527.02,-364.14 -41.9,-1.26 -461.08,314.86 -527.65,362.18z"/>
  </g>
 </g>
</svg>
