<?xml version="1.0" standalone="no"?>
<!DOCTYPE svg PUBLIC "-//W3C//DTD SVG 20010904//EN"
 "http://www.w3.org/TR/2001/REC-SVG-20010904/DTD/svg10.dtd">
<svg version="1.0" xmlns="http://www.w3.org/2000/svg"
 width="501.000000pt" height="501.000000pt" viewBox="0 0 501.000000 501.000000"
 preserveAspectRatio="xMidYMid meet">

<g transform="translate(0.000000,501.000000) scale(0.100000,-0.100000)"
fill="#000000" stroke="none">
<path d="M2309 4996 c-2 -2 -53 -9 -114 -15 -215 -23 -480 -96 -697 -192 -674
-297 -1204 -904 -1393 -1594 -186 -681 -97 -1370 254 -1965 347 -585 919
-1004 1582 -1159 252 -59 644 -75 919 -38 717 97 1382 530 1765 1147 72 117
181 342 230 474 51 138 103 348 122 490 27 207 28 483 3 680 -37 296 -109 533
-244 801 -130 257 -262 441 -461 641 -472 474 -1097 734 -1766 734 -108 0
-198 -2 -200 -4z m244 -1477 c12 -7 95 -64 185 -127 l162 -116 -2 -200 -3
-200 -130 -93 c-71 -51 -155 -111 -186 -133 l-57 -40 -148 106 c-82 59 -166
120 -186 136 l-38 30 0 196 0 197 133 96 c141 103 226 159 240 159 4 0 18 -5
30 -11z m-1065 -1286 l3 -113 39 26 c46 31 114 41 149 22 56 -30 66 -59 71
-206 5 -133 6 -137 28 -140 12 -2 22 -10 22 -18 0 -10 -13 -14 -46 -14 l-46 0
7 93 c16 210 -42 300 -158 249 -60 -27 -68 -52 -65 -192 3 -111 4 -115 26
-118 12 -2 22 -10 22 -18 0 -11 -15 -14 -64 -14 -71 0 -92 13 -52 32 l26 11 0
231 0 230 -27 29 -28 28 45 -3 45 -3 3 -112z m2582 -143 l0 -260 27 -11 c22
-8 24 -12 13 -19 -8 -6 -27 -10 -43 -10 -23 0 -29 5 -34 30 l-6 31 -21 -20
c-24 -22 -87 -51 -112 -51 -36 0 -86 34 -110 76 -49 83 -43 198 13 265 51 61
114 74 183 39 22 -11 42 -20 45 -20 3 0 5 38 5 85 0 82 -1 86 -25 95 -39 15
-29 30 20 30 l45 0 0 -260z m-3422 244 c27 -8 29 -24 2 -31 -11 -3 -20 -11
-20 -19 0 -18 95 -330 113 -374 l15 -35 20 45 c10 25 45 122 76 217 60 179 78
211 101 179 15 -19 124 -322 145 -399 7 -26 17 -44 21 -40 9 9 129 391 129
410 0 6 -10 13 -22 15 -36 5 -32 26 6 34 66 12 145 -18 87 -33 -24 -6 -24 -8
-107 -273 -36 -118 -72 -221 -79 -228 -22 -24 -40 10 -99 185 -69 208 -88 256
-101 254 -5 -1 -43 -99 -82 -218 -40 -119 -78 -220 -85 -224 -7 -4 -18 -3 -25
2 -6 6 -46 116 -88 245 -48 150 -83 241 -95 252 -11 9 -20 20 -20 24 0 13 72
21 108 12z m2572 -12 l65 -17 3 -49 c2 -27 0 -56 -3 -65 -6 -14 -8 -14 -21 3
-8 11 -14 32 -14 47 0 43 -32 59 -115 59 -107 -1 -173 -37 -215 -120 -27 -53
-28 -178 -1 -235 54 -117 182 -157 306 -96 58 29 80 27 54 -5 -37 -45 -144
-71 -224 -54 -75 16 -132 61 -170 134 -58 115 -32 274 58 351 74 64 157 78
277 47z m-880 -92 l0 -70 61 0 c81 0 77 -24 -4 -28 l-57 -3 0 -129 c0 -71 5
-141 10 -155 9 -23 15 -27 43 -23 17 3 39 7 47 9 32 9 13 -26 -22 -39 -30 -12
-41 -12 -64 0 -46 22 -54 50 -54 200 0 134 0 137 -22 140 -29 4 -30 22 -2 26
18 3 22 12 28 63 6 64 11 79 27 79 5 0 9 -31 9 -70z m-265 -64 c56 -24 69 -62
71 -204 1 -115 3 -125 25 -148 l24 -25 -40 3 c-33 2 -41 7 -43 26 l-3 22 -42
-24 c-97 -56 -197 -26 -197 59 0 72 22 89 149 114 l86 18 -2 47 c-1 29 -8 55
-19 67 -21 23 -74 25 -134 4 -55 -20 -63 -19 -51 4 24 45 112 63 176 37z m677
-2 c21 -6 32 -38 24 -70 -9 -33 -28 -26 -40 14 -20 70 -146 45 -146 -28 0 -34
10 -43 80 -69 87 -34 102 -44 116 -77 19 -45 2 -99 -39 -124 -35 -22 -127 -27
-171 -10 -23 8 -26 15 -26 55 0 53 24 64 35 15 13 -57 73 -76 131 -41 72 44
48 111 -53 145 -77 26 -113 58 -113 102 0 77 96 119 202 88z m867 -13 c93 -66
103 -237 19 -318 -59 -57 -158 -63 -222 -12 -60 47 -85 155 -57 241 14 42 67
95 107 108 46 15 118 6 153 -19z m801 7 c49 -26 80 -74 80 -124 l0 -32 -140
-7 -140 -7 0 -29 c0 -43 24 -92 56 -118 26 -20 36 -22 89 -17 33 3 72 9 88 12
38 9 35 -11 -5 -33 -50 -26 -127 -21 -182 11 -61 36 -86 85 -86 169 0 85 29
142 90 174 54 29 94 29 150 1z"/>
<path d="M2453 3434 c-93 -62 -233 -167 -233 -176 0 -13 283 -218 302 -218 11
0 295 197 303 210 8 13 -274 230 -298 230 -3 0 -36 -21 -74 -46z"/>
<path d="M2190 3050 c0 -82 4 -150 8 -150 5 0 60 -39 122 -86 116 -87 168
-120 177 -110 3 2 6 66 7 141 l1 137 -35 30 c-38 32 -222 158 -257 177 l-23
12 0 -151z"/>
<path d="M2820 3183 c-87 -58 -232 -168 -249 -190 -19 -23 -21 -40 -21 -159 0
-74 3 -134 8 -134 16 1 74 39 185 120 l116 85 0 148 c1 81 -2 147 -6 146 -5 0
-19 -7 -33 -16z"/>
<path d="M3875 2140 c-27 -11 -61 -49 -74 -83 -28 -72 1 -201 50 -227 13 -7
43 -10 72 -7 41 4 56 11 79 36 28 32 29 34 26 139 l-3 106 -34 23 c-34 23 -80
29 -116 13z"/>
<path d="M1975 1958 c-74 -26 -98 -88 -49 -127 34 -26 74 -27 124 -1 47 24 60
45 60 99 l0 41 -52 -1 c-29 0 -66 -5 -83 -11z"/>
<path d="M3458 2134 c-40 -21 -68 -82 -68 -148 0 -94 33 -148 102 -167 50 -13
102 10 135 60 27 41 32 141 9 196 -27 65 -115 94 -178 59z"/>
<path d="M4275 2128 c-25 -20 -55 -73 -55 -98 0 -6 46 -10 125 -10 79 0 125 4
125 10 0 25 -30 78 -55 98 -37 30 -103 30 -140 0z"/>
</g>
</svg>
